<svg width="966" height="393" viewBox="0 0 966 393" fill="none" xmlns="http://www.w3.org/2000/svg">
<path d="M79.4247 368.167H35.8166L28.673 385.806C28.0793 387.261 26.6813 388.2 25.13 388.2H3.83342C1.05644 388.2 -0.782112 385.346 0.32868 382.818L42.4813 287.328C43.0942 285.949 44.4731 285.049 45.9861 285.049H69.734C71.247 285.049 72.6259 285.949 73.2388 287.328L115.525 382.818C116.655 385.346 114.798 388.2 112.021 388.2H90.1305C88.56 388.2 87.162 387.261 86.5874 385.806L79.4247 368.167ZM69.8106 344.036L59.3922 318.086C58.741 316.477 56.4811 316.477 55.83 318.086L45.3924 344.036C44.8944 345.3 45.8137 346.66 47.1735 346.66H68.0295C69.3893 346.66 70.3277 345.281 69.8106 344.036Z" fill="#135436"/>
<path d="M195.042 334.422H213.16C215.267 334.422 216.99 336.146 216.99 338.252V375.138C216.99 376.402 216.377 377.609 215.324 378.317C209.827 381.995 203.603 384.848 196.651 386.897C188.991 389.157 181.33 390.287 173.669 390.287C162.868 390.287 153.139 388.008 144.501 383.431C135.864 378.854 129.084 372.495 124.162 364.356C119.24 356.197 116.789 346.966 116.789 336.663C116.789 326.359 119.24 317.109 124.162 308.97C129.065 300.811 135.902 294.453 144.635 289.895C153.369 285.336 163.27 283 174.282 283C183.915 283 192.553 284.628 200.213 287.865C206.591 290.565 212.068 294.242 216.684 298.915C218.216 300.466 218.12 302.994 216.511 304.45L203.507 316.209C202.033 317.549 199.773 317.511 198.317 316.151C191.863 310.157 184.356 307.169 175.757 307.169C166.909 307.169 159.784 309.851 154.384 315.194C148.983 320.556 146.283 327.7 146.283 336.624C146.283 342.332 147.508 347.407 149.96 351.869C152.411 356.331 155.858 359.817 160.282 362.326C164.706 364.835 169.762 366.08 175.45 366.08C180.602 366.08 185.486 365.122 190.044 363.207C190.752 362.9 191.212 362.192 191.212 361.426V338.252C191.212 336.146 192.936 334.422 195.042 334.422Z" fill="#135436"/>
<path d="M277.95 360.794H264.965C263.912 360.794 263.05 361.656 263.05 362.709V384.369C263.05 386.476 261.327 388.2 259.22 388.2H237.694C235.587 388.2 233.863 386.476 233.863 384.369V288.899C233.863 286.792 235.587 285.068 237.694 285.068H281.014C290.341 285.068 298.442 286.62 305.337 289.703C312.212 292.806 317.517 297.21 321.252 302.956C324.987 308.701 326.844 315.462 326.844 323.218C326.844 330.687 325.101 337.199 321.616 342.734C318.475 347.713 314.147 351.735 308.593 354.78C307.578 355.336 307.233 356.619 307.884 357.557L324.795 382.186C326.538 384.733 324.718 388.18 321.635 388.18H299.687C298.423 388.18 297.236 387.548 296.527 386.514L279.521 361.617C279.176 361.119 278.582 360.794 277.95 360.794ZM292.812 312.034C289.767 309.372 285.247 308.05 279.253 308.05H264.965C263.912 308.05 263.05 308.912 263.05 309.965V336.337C263.05 337.39 263.912 338.252 264.965 338.252H279.253C285.247 338.252 289.767 336.95 292.812 334.345C295.857 331.741 297.37 328.025 297.37 323.218C297.389 318.411 295.857 314.677 292.812 312.034Z" fill="#135436"/>
<path d="M364.266 383.354C355.571 378.739 348.734 372.361 343.774 364.203C338.813 356.044 336.343 346.871 336.343 336.644C336.343 326.436 338.813 317.243 343.774 309.084C348.734 300.926 355.571 294.548 364.266 289.933C372.941 285.317 382.747 283 393.644 283C404.542 283 414.347 285.317 423.042 289.933C431.737 294.548 438.555 300.945 443.515 309.084C448.475 317.243 450.965 326.417 450.965 336.644C450.965 346.871 448.475 356.044 443.515 364.203C438.555 372.361 431.718 378.739 423.042 383.354C414.347 387.97 404.542 390.287 393.644 390.287C382.747 390.287 372.941 387.97 364.266 383.354ZM407.797 362.422C412.03 359.97 415.362 356.504 417.814 352.041C420.265 347.579 421.491 342.447 421.491 336.644C421.491 330.841 420.265 325.708 417.814 321.246C415.362 316.783 412.011 313.317 407.797 310.866C403.565 308.414 398.853 307.188 393.644 307.188C388.435 307.188 383.724 308.414 379.491 310.866C375.259 313.317 371.926 316.783 369.475 321.246C367.024 325.708 365.798 330.841 365.798 336.644C365.798 342.447 367.024 347.579 369.475 352.041C371.926 356.504 375.278 359.97 379.491 362.422C383.724 364.873 388.435 366.099 393.644 366.099C398.853 366.099 403.565 364.873 407.797 362.422Z" fill="#135436"/>
<path d="M489.168 353.365H487.668V354.865V386.408C487.668 387.686 486.616 388.738 485.338 388.738H463.83C462.552 388.738 461.5 387.686 461.5 386.408V290.918C461.5 289.64 462.552 288.588 463.83 288.588H537.066C538.344 288.588 539.396 289.64 539.396 290.918V305.799C539.396 307.077 538.344 308.129 537.066 308.129H491.083C489.211 308.129 487.668 309.633 487.668 311.544V330.408C487.668 332.29 489.201 333.824 491.083 333.824H530.861C532.139 333.824 533.191 334.876 533.191 336.154V351.035C533.191 352.313 532.139 353.365 530.861 353.365H489.168Z" fill="#1DA042" stroke="#1DA042" stroke-width="3"/>
<path d="M577.032 384.031L577.03 384.029C568.564 379.536 561.931 373.343 557.116 365.423C552.309 357.517 549.903 348.616 549.903 338.644C549.903 328.69 552.309 319.77 557.116 311.864C561.931 303.944 568.564 297.752 577.03 293.258C585.486 288.769 595.046 286.5 605.724 286.5C616.402 286.5 625.962 288.769 634.418 293.258C642.881 297.75 649.497 303.961 654.313 311.864C659.121 319.772 661.545 328.673 661.545 338.644C661.545 348.614 659.121 357.515 654.313 365.423C649.498 373.343 642.865 379.536 634.418 384.03C625.962 388.518 616.402 390.787 605.724 390.787C595.044 390.787 585.485 388.537 577.032 384.031ZM620.631 311.588L620.629 311.587C616.153 308.995 611.18 307.708 605.724 307.708C600.268 307.708 595.295 308.995 590.819 311.587C586.338 314.182 582.816 317.854 580.24 322.543C577.651 327.256 576.378 332.643 576.378 338.663C576.378 344.682 577.651 350.07 580.24 354.783C582.817 359.474 586.358 363.143 590.817 365.737L590.819 365.739C595.295 368.331 600.268 369.618 605.724 369.618C611.18 369.618 616.153 368.331 620.629 365.739C625.11 363.143 628.632 359.472 631.208 354.783C633.797 350.07 635.07 344.682 635.07 338.663C635.07 332.643 633.797 327.256 631.208 322.543C628.631 317.851 625.09 314.182 620.631 311.588Z" fill="#1DA042" stroke="#1DA042" stroke-width="3"/>
<path d="M722.159 361.967L721.713 361.313H720.921H705.006H703.506V362.813V386.388C703.506 387.667 702.454 388.719 701.175 388.719H679.668C678.39 388.719 677.338 387.667 677.338 386.388V290.918C677.338 289.64 678.39 288.588 679.668 288.588H722.989C732.15 288.588 740.034 290.111 746.697 293.09C753.339 296.088 758.408 300.314 761.969 305.793C765.524 311.262 767.319 317.73 767.319 325.237C767.319 332.465 765.635 338.691 762.321 343.954L762.32 343.956C758.998 349.248 754.244 353.414 747.98 356.445L746.409 357.205L747.396 358.644L765.532 385.071C766.593 386.623 765.486 388.719 763.61 388.719H741.662C740.895 388.719 740.17 388.333 739.739 387.705L722.159 361.967ZM735.753 312.922C732.327 309.929 727.391 308.569 721.208 308.569H706.921C705.039 308.569 703.506 310.103 703.506 311.985V338.356C703.506 340.238 705.039 341.771 706.921 341.771H721.208C727.388 341.771 732.319 340.433 735.742 337.504C739.19 334.556 740.825 330.383 740.825 325.237C740.825 320.092 739.19 315.907 735.753 312.922Z" fill="#1DA042" stroke="#1DA042" stroke-width="3"/>
<path d="M809.829 312.138V312.124L809.828 312.111C809.795 310.236 808.3 308.723 806.394 308.723H780.463C779.185 308.723 778.133 307.671 778.133 306.392V290.918C778.133 289.64 779.185 288.588 780.463 288.588H865.19C866.468 288.588 867.52 289.64 867.52 290.918V306.392C867.52 307.671 866.468 308.723 865.19 308.723H839.412C837.53 308.723 835.997 310.256 835.997 312.138V386.408C835.997 387.686 834.945 388.738 833.666 388.738H812.159C810.881 388.738 809.829 387.686 809.829 386.408V312.138Z" fill="#1DA042" stroke="#1DA042" stroke-width="3"/>
<path d="M963.796 371.508V386.388C963.796 387.667 962.744 388.719 961.466 388.719H886.315C885.036 388.719 883.984 387.667 883.984 386.388V290.918C883.984 289.64 885.036 288.588 886.315 288.588H959.55C960.829 288.588 961.881 289.64 961.881 290.918V305.799C961.881 307.077 960.829 308.129 959.55 308.129H913.28C911.398 308.129 909.865 309.662 909.865 311.544V325.103C909.865 326.985 911.398 328.519 913.28 328.519H953.364C954.643 328.519 955.695 329.571 955.695 330.849V345.002C955.695 346.28 954.643 347.332 953.364 347.332H913.28C911.398 347.332 909.865 348.866 909.865 350.747V365.762C909.865 367.644 911.398 369.177 913.28 369.177H961.466C962.744 369.177 963.796 370.229 963.796 371.508Z" fill="#1DA042" stroke="#1DA042" stroke-width="3"/>
<g clip-path="url(#clip0)">
<path d="M572.265 35.7346C548.442 11.9115 517.227 0 486.004 0C454.781 0 423.558 11.9115 399.735 35.7346C352.088 83.3808 352.088 160.627 399.735 208.273C423.558 232.096 454.781 244.008 486.004 244.008C517.227 244.008 548.45 232.096 572.273 208.273C619.912 160.627 619.912 83.3808 572.265 35.7346ZM383.769 142.131C383.769 120.198 392.312 99.583 407.813 84.0743C423.321 68.5657 443.936 60.0302 465.869 60.0302C487.802 60.0302 508.417 68.5733 523.926 84.0743C539.434 99.583 547.97 120.198 547.97 142.131C547.97 164.064 539.427 184.679 523.926 200.187C508.417 215.696 487.802 224.231 465.869 224.231C465.763 224.231 465.663 224.231 465.557 224.231C475.136 221.175 484.152 215.871 491.75 208.273C517.158 182.865 517.158 141.666 491.75 116.258C479.046 103.553 462.394 97.1976 445.742 97.1976C429.091 97.1976 412.439 103.553 399.735 116.258C392.137 123.856 386.832 132.871 383.776 142.451C383.769 142.337 383.769 142.23 383.769 142.131ZM407.813 124.336C417.941 114.208 431.415 108.629 445.742 108.629C460.07 108.629 473.536 114.208 483.672 124.336C504.584 145.248 504.584 179.275 483.672 200.187C473.544 210.315 460.07 215.894 445.742 215.894C444.104 215.894 442.473 215.81 440.857 215.665C444.706 213.905 448.318 211.436 451.489 208.265C465.785 193.968 465.785 170.801 451.489 156.504C444.34 149.355 434.974 145.781 425.608 145.781C416.242 145.781 406.875 149.355 399.727 156.504C396.572 159.659 394.11 163.256 392.35 167.089C390.986 151.794 396.13 136.019 407.813 124.336ZM407.813 164.59C412.568 159.834 418.886 157.22 425.608 157.22C432.329 157.22 438.647 159.842 443.403 164.59C453.218 174.405 453.218 190.371 443.403 200.187C438.647 204.943 432.329 207.557 425.608 207.557C419.305 207.557 413.361 205.255 408.72 201.056C408.415 200.766 408.11 200.484 407.805 200.187C407.5 199.882 407.211 199.562 406.914 199.25C398.012 189.381 398.31 174.101 407.813 164.59ZM564.187 200.187C544.274 220.101 518.088 231.479 490.089 232.492C505.445 228.392 519.963 220.322 532.012 208.273C568.539 171.746 568.539 112.523 532.012 75.9961C513.752 57.7363 489.814 48.5988 465.877 48.5988C441.939 48.5988 418.002 57.7287 399.742 75.9961C387.694 88.0449 379.623 102.563 375.523 117.919C376.536 89.9196 387.907 63.7416 407.828 43.8205C428.702 22.9314 456.465 11.4314 486.004 11.4314C515.535 11.4314 543.306 22.9314 564.187 43.8129C585.069 64.6943 596.569 92.465 596.569 121.996C596.569 151.535 585.069 179.298 564.187 200.187Z" fill="#135436"/>
<path d="M568.089 207.465C579.795 195.759 588.483 182.187 594.168 167.707C549.258 146.299 493.869 154.18 456.678 191.37C445.719 202.329 437.313 214.88 431.445 228.27C448.364 237.164 467.02 241.615 485.668 241.615C515.497 241.607 545.325 230.229 568.089 207.465Z" fill="#1DA042"/>
<path d="M498.891 212.571C516.236 212.571 532.743 217.967 546.514 227.958C550.012 225.961 553.426 223.774 556.757 221.396C539.876 207.9 519.384 201.14 498.891 201.14C481.972 201.14 465.054 205.743 450.17 214.941C454.415 208.319 459.399 202.1 465.092 196.407C485.76 175.739 513.249 164.353 542.483 164.353C561.009 164.353 578.819 168.926 594.656 177.538C596.401 174.123 597.978 170.648 599.381 167.12C581.654 157.662 562.076 152.922 542.49 152.922C511.557 152.922 480.623 164.719 457.021 188.321C444.691 200.652 435.591 214.979 429.7 230.259C433.709 232.348 437.809 234.192 441.985 235.8C457.273 220.817 477.445 212.571 498.891 212.571Z" fill="#135436"/>
<path d="M486.004 11.4314C515.535 11.4314 543.306 22.9314 564.187 43.8129C585.069 64.6943 596.569 92.465 596.569 121.996C596.569 151.527 585.069 179.298 564.187 200.18C543.306 221.061 515.535 232.561 486.004 232.561C456.473 232.561 428.702 221.069 407.813 200.187C386.931 179.298 375.431 151.535 375.431 122.004C375.431 92.4726 386.931 64.7019 407.813 43.8205C428.702 22.9314 456.465 11.4314 486.004 11.4314ZM486.004 0C454.781 0 423.558 11.9115 399.735 35.7346C352.088 83.3808 352.088 160.627 399.735 208.273C423.558 232.096 454.781 244.008 486.004 244.008C517.227 244.008 548.45 232.096 572.273 208.273C619.919 160.627 619.919 83.3808 572.273 35.7346C548.442 11.9115 517.227 0 486.004 0Z" fill="#135436"/>
</g>
<defs>
<clipPath id="clip0">
<rect width="244" height="244" fill="white" transform="translate(364)"/>
</clipPath>
</defs>
</svg>
